<svg width="159" height="32" viewBox="0 0 159 32" fill="none" xmlns="http://www.w3.org/2000/svg">
<g clip-path="url(#clip0)">
<path fill-rule="evenodd" clip-rule="evenodd" d="M42.6712 0.238098L32.3237 17.9764L26.9829 8.64692L26.1787 7.24215C23.6861 3.37589 19.513 0.710326 14.7763 0.302158C14.3559 0.266443 13.931 0.246602 13.5027 0.246602V0.238098H0.119385V30.7895H13.3917C18.3346 30.7895 22.7444 28.4028 25.529 24.7163L22.3488 15.5177L22.2355 15.3171C22.2372 15.3828 22.2406 15.4469 22.2406 15.5126C22.2406 20.4203 18.2709 24.5745 13.3917 24.5745H6.29595V6.45302H13.3917C16.1446 6.45302 18.6079 7.77333 20.2321 9.80793C20.8165 10.5398 32.2657 30.7742 32.2657 30.7742L49.7923 0.238098H42.6712Z" fill="#3B0466"/>
<path fill-rule="evenodd" clip-rule="evenodd" d="M141.425 7.2269C141.572 6.82837 141.771 6.47689 142.021 6.17303C142.268 5.86918 142.571 5.62541 142.925 5.44117C143.281 5.25579 143.689 5.16395 144.15 5.16395C144.6 5.16395 145.003 5.25579 145.358 5.44117C145.713 5.62541 146.015 5.86918 146.264 6.17303C146.512 6.47689 146.704 6.82497 146.84 7.21783C146.977 7.61126 147.05 8.02169 147.063 8.45027H141.132C141.179 8.0336 141.277 7.626 141.425 7.2269ZM146.067 12.38C145.606 12.8086 144.967 13.0229 144.15 13.0229C143.618 13.0229 143.162 12.9095 142.783 12.6833C142.404 12.4577 142.091 12.172 141.842 11.8256C141.593 11.4809 141.413 11.0909 141.3 10.6561C141.188 10.2213 141.132 9.80176 141.132 9.39699H148.181C148.204 8.75356 148.146 8.11977 148.004 7.49504C147.862 6.86975 147.627 6.31589 147.303 5.83346C146.977 5.35103 146.553 4.96157 146.032 4.66395C145.512 4.36632 144.885 4.21723 144.15 4.21723C143.428 4.21723 142.804 4.35725 142.277 4.6373C141.751 4.91678 141.321 5.28584 140.99 5.74446C140.659 6.20251 140.413 6.72349 140.253 7.3074C140.093 7.89074 140.014 8.48598 140.014 9.09313C140.014 9.7479 140.093 10.3704 140.253 10.9599C140.413 11.5489 140.659 12.0671 140.99 12.5138C141.321 12.96 141.751 13.3114 142.277 13.5677C142.804 13.8233 143.428 13.9515 144.15 13.9515C145.311 13.9515 146.207 13.6652 146.84 13.0943C147.473 12.5229 147.909 11.7128 148.146 10.6646H147.027C146.849 11.3794 146.53 11.9509 146.067 12.38ZM137.844 10.5132C137.731 10.9837 137.548 11.4033 137.294 11.7729C137.039 12.1419 136.707 12.4418 136.299 12.6742C135.891 12.9067 135.391 13.0229 134.799 13.0229C134.266 13.0229 133.81 12.9067 133.431 12.6742C133.053 12.4418 132.742 12.1419 132.499 11.7729C132.257 11.4033 132.079 10.9837 131.967 10.5132C131.855 10.0433 131.798 9.5699 131.798 9.09313C131.798 8.61694 131.855 8.14358 131.967 7.67305C132.079 7.20309 132.257 6.78358 132.499 6.41397C132.742 6.04548 133.053 5.74446 133.431 5.5126C133.81 5.2796 134.266 5.16395 134.799 5.16395C135.391 5.16395 135.891 5.2796 136.299 5.5126C136.707 5.74446 137.039 6.04548 137.294 6.41397C137.548 6.78358 137.731 7.20309 137.844 7.67305C137.957 8.14358 138.013 8.61694 138.013 9.09313C138.013 9.5699 137.957 10.0433 137.844 10.5132ZM138.013 6.23539H137.978C137.859 5.90206 137.69 5.6101 137.471 5.3601C137.252 5.11066 137 4.89921 136.716 4.72631C136.432 4.55397 136.127 4.42585 135.802 4.34195C135.477 4.25918 135.142 4.21723 134.799 4.21723C134.101 4.21723 133.494 4.34875 132.979 4.61009C132.464 4.87257 132.035 5.22631 131.692 5.67303C131.348 6.11975 131.094 6.63732 130.929 7.2269C130.762 7.81648 130.68 8.43893 130.68 9.09313C130.68 9.7479 130.762 10.3704 130.929 10.9599C131.094 11.5489 131.348 12.0671 131.692 12.5138C132.035 12.96 132.464 13.3114 132.979 13.5677C133.494 13.8233 134.101 13.9515 134.799 13.9515C135.13 13.9515 135.465 13.9033 135.802 13.8086C136.139 13.7128 136.457 13.5796 136.752 13.4067C137.047 13.2343 137.311 13.0229 137.541 12.7723C137.773 12.5229 137.948 12.2485 138.065 11.9509H138.102V13.7015H139.131V0.949053H138.013V6.23539ZM124.199 10.1294C124.199 10.5818 124.113 10.9866 123.942 11.3437C123.77 11.7014 123.539 12.0047 123.249 12.2547C122.958 12.5047 122.618 12.6952 122.228 12.8262C121.837 12.9571 121.429 13.0229 121.003 13.0229C120.743 13.0229 120.489 12.9809 120.24 12.8976C119.991 12.8143 119.772 12.6924 119.583 12.5314C119.393 12.3704 119.243 12.1805 119.129 11.9599C119.017 11.74 118.961 11.4866 118.961 11.2009C118.961 10.7485 119.094 10.4004 119.361 10.1561C119.627 9.91174 119.967 9.72466 120.382 9.59371C120.796 9.46219 121.255 9.36468 121.758 9.29835C122.261 9.23316 122.748 9.15889 123.223 9.07556C123.376 9.05175 123.554 9.01037 123.755 8.95028C123.956 8.89132 124.092 8.79608 124.164 8.66456H124.199V10.1294ZM125.317 12.0762V7.18212C125.317 6.56306 125.217 6.05965 125.016 5.67303C124.814 5.28584 124.554 4.98538 124.234 4.77109C123.915 4.5568 123.554 4.41054 123.151 4.33344C122.748 4.25635 122.346 4.21723 121.944 4.21723C121.411 4.21723 120.926 4.27732 120.489 4.3958C120.05 4.51542 119.669 4.69966 119.342 4.9491C119.017 5.19967 118.759 5.5211 118.57 5.91453C118.381 6.30682 118.268 6.77111 118.233 7.3074H119.352C119.376 6.55682 119.612 6.01203 120.062 5.67303C120.512 5.33346 121.092 5.16395 121.802 5.16395C122.133 5.16395 122.443 5.1906 122.734 5.24445C123.024 5.29831 123.279 5.39638 123.498 5.53867C123.717 5.68153 123.889 5.87541 124.013 6.11975C124.136 6.36408 124.199 6.67587 124.199 7.05683C124.199 7.3074 124.166 7.50978 124.101 7.66398C124.036 7.81931 123.944 7.94119 123.826 8.03076C123.708 8.11977 123.56 8.18269 123.382 8.21784C123.205 8.25412 122.997 8.2836 122.76 8.30741C122.157 8.37884 121.562 8.4531 120.976 8.53077C120.391 8.60844 119.863 8.74222 119.395 8.9327C118.928 9.12318 118.552 9.39983 118.268 9.76321C117.984 10.126 117.842 10.6294 117.842 11.2723C117.842 11.7366 117.923 12.1385 118.082 12.4781C118.242 12.8171 118.461 13.0971 118.739 13.3171C119.017 13.5382 119.343 13.6986 119.716 13.7995C120.089 13.9004 120.489 13.9515 120.914 13.9515C121.363 13.9515 121.751 13.9095 122.077 13.8267C122.403 13.7428 122.692 13.6238 122.948 13.4696C123.202 13.3143 123.433 13.1204 123.64 12.8885C123.847 12.6567 124.05 12.3914 124.252 12.0937H124.288C124.288 12.3324 124.302 12.5495 124.332 12.7457C124.362 12.9424 124.424 13.1119 124.518 13.2547C124.613 13.3982 124.746 13.5081 124.918 13.5852C125.09 13.6629 125.317 13.7015 125.601 13.7015C125.755 13.7015 125.883 13.6952 125.983 13.6839C126.083 13.672 126.199 13.6538 126.33 13.63V12.6833C126.223 12.7309 126.104 12.7547 125.974 12.7547C125.537 12.7547 125.317 12.5291 125.317 12.0762ZM115.876 2.75236H116.994V0.948486H115.876V2.75236ZM115.876 13.7015H116.994V4.48537H115.876V13.7015ZM112.068 6.6464H112.033V4.48537H111.004V13.7015H112.122V8.78984C112.122 8.30174 112.205 7.85219 112.371 7.44119C112.536 7.03019 112.77 6.67587 113.072 6.37825C113.374 6.0812 113.731 5.8516 114.147 5.6906C114.56 5.53017 115.022 5.46157 115.531 5.48538V4.36009C114.702 4.32437 113.989 4.50918 113.391 4.91395C112.793 5.31872 112.353 5.89582 112.068 6.6464ZM108.824 10.5308C108.688 11.0013 108.487 11.4208 108.221 11.7904C107.955 12.1595 107.621 12.4577 107.218 12.6833C106.815 12.9095 106.348 13.0229 105.815 13.0229C105.282 13.0229 104.815 12.9095 104.412 12.6833C104.01 12.4577 103.676 12.1595 103.409 11.7904C103.143 11.4208 102.941 11.0013 102.805 10.5308C102.669 10.0608 102.601 9.58123 102.601 9.09313C102.601 8.6056 102.669 8.126 102.805 7.65548C102.941 7.18552 103.143 6.76601 103.409 6.39639C103.676 6.02734 104.01 5.72915 104.412 5.50353C104.815 5.27733 105.282 5.16395 105.815 5.16395C106.348 5.16395 106.815 5.27733 107.218 5.50353C107.621 5.72915 107.955 6.02734 108.221 6.39639C108.487 6.76601 108.688 7.18552 108.824 7.65548C108.96 8.126 109.028 8.6056 109.028 9.09313C109.028 9.58123 108.96 10.0608 108.824 10.5308ZM109.028 5.66396C108.661 5.22348 108.209 4.87257 107.67 4.61009C107.131 4.34875 106.513 4.21723 105.815 4.21723C105.116 4.21723 104.498 4.34875 103.96 4.61009C103.421 4.87257 102.968 5.22348 102.601 5.66396C102.235 6.10501 101.956 6.61975 101.767 7.20933C101.578 7.79834 101.483 8.42646 101.483 9.09313C101.483 9.76037 101.578 10.3879 101.767 10.9775C101.956 11.5671 102.235 12.0818 102.601 12.5229C102.968 12.9634 103.421 13.3114 103.96 13.5677C104.498 13.8233 105.116 13.9515 105.815 13.9515C106.513 13.9515 107.131 13.8233 107.67 13.5677C108.209 13.3114 108.661 12.9634 109.028 12.5229C109.396 12.0818 109.673 11.5671 109.864 10.9775C110.053 10.3879 110.148 9.76037 110.148 9.09313C110.148 8.42646 110.053 7.79834 109.864 7.20933C109.673 6.61975 109.396 6.10501 109.028 5.66396ZM99.9331 12.5138C99.8317 12.3052 99.7821 12.0166 99.7821 11.6476V5.43153H101.647V4.48537H99.7821V1.71664H98.6628V4.48537H97.0657V5.43153H98.6628V11.7366C98.6521 12.5229 98.7942 13.0614 99.09 13.3534C99.3848 13.6448 99.9066 13.7905 100.652 13.7905C100.818 13.7905 100.983 13.7842 101.149 13.7729C101.314 13.7604 101.481 13.7553 101.647 13.7553V12.8086C101.327 12.8437 101.007 12.8619 100.687 12.8619C100.285 12.8381 100.033 12.7219 99.9331 12.5138ZM95.5424 13.7015H96.6605V0.949053H95.5424V13.7015ZM93.1428 9.32556C93.1428 9.78985 93.0899 10.2451 92.9833 10.6918C92.8768 11.1379 92.7117 11.5348 92.4857 11.8794C92.2614 12.2247 91.9774 12.5019 91.6336 12.71C91.2904 12.9186 90.8768 13.0229 90.391 13.0229C89.5028 13.0229 88.879 12.8086 88.5177 12.38C88.1571 11.9509 87.9643 11.3205 87.9412 10.4866V4.48537H86.8214V10.4684C86.8214 11.0166 86.8812 11.5047 87.0001 11.9333C87.1179 12.3619 87.305 12.7253 87.5591 13.0229C87.8133 13.3205 88.1447 13.5495 88.5532 13.7105C88.9612 13.871 89.4555 13.9515 90.0354 13.9515C90.7224 13.9515 91.3468 13.7876 91.9092 13.46C92.4716 13.1329 92.9005 12.6595 93.1969 12.0404H93.2319V13.7015H94.2615V4.48537H93.1428V9.32556ZM85.2564 9.39699C85.0141 9.19461 84.7357 9.03078 84.4224 8.90606C84.1085 8.78077 83.7912 8.6946 83.4722 8.64698L81.9811 8.30741C81.7917 8.25979 81.5843 8.19743 81.3589 8.11977C81.1346 8.0421 80.9272 7.9446 80.7379 7.82555C80.5491 7.7065 80.3913 7.56024 80.2673 7.38733C80.1439 7.215 80.0807 7.00354 80.0807 6.75354C80.0807 6.45648 80.1461 6.20591 80.2769 6.00353C80.407 5.80058 80.5784 5.63731 80.7908 5.5126C81.0044 5.38731 81.2377 5.29831 81.4919 5.24445C81.7472 5.1906 81.9985 5.16395 82.2471 5.16395C82.5666 5.16395 82.8692 5.20307 83.1532 5.2796C83.4373 5.35727 83.6881 5.47972 83.9067 5.64638C84.1259 5.81305 84.3012 6.02451 84.4308 6.28018C84.561 6.53642 84.6326 6.83744 84.6444 7.18212H85.7625C85.7383 6.68211 85.6385 6.2473 85.461 5.87825C85.2829 5.50976 85.044 5.19967 84.7413 4.9491C84.4398 4.69966 84.091 4.51542 83.6948 4.3958C83.297 4.27732 82.8692 4.21723 82.4065 4.21723C82.0042 4.21723 81.599 4.26485 81.1904 4.36009C80.7824 4.45533 80.4121 4.60442 80.0807 4.80624C79.7499 5.00919 79.48 5.27733 79.2732 5.6101C79.0663 5.94401 78.9627 6.34254 78.9627 6.80739C78.9627 7.19969 79.0275 7.53019 79.1576 7.79834C79.2873 8.06591 79.4687 8.29267 79.6992 8.47691C79.9303 8.66172 80.1985 8.81649 80.5068 8.9412C80.8151 9.06649 81.1521 9.17647 81.5195 9.27171L82.9571 9.59371C83.2057 9.65323 83.4514 9.72466 83.6948 9.80799C83.9366 9.89133 84.1524 9.99564 84.3418 10.1204C84.5311 10.2451 84.6816 10.4004 84.7955 10.5846C84.9076 10.7695 84.9634 10.9985 84.9634 11.2723C84.9634 11.5937 84.8834 11.8653 84.7239 12.0847C84.5644 12.3052 84.3604 12.4866 84.1119 12.6295C83.8628 12.7723 83.5934 12.8738 83.3037 12.9333C83.0135 12.9934 82.7328 13.0229 82.4606 13.0229C81.7145 13.0229 81.0901 12.8296 80.5874 12.4418C80.0841 12.0558 79.8091 11.4809 79.7618 10.7184H78.6426C78.7372 11.85 79.1188 12.6714 79.7883 13.1833C80.4561 13.6952 81.329 13.9515 82.4065 13.9515C82.8326 13.9515 83.2654 13.9033 83.7033 13.8086C84.1406 13.7128 84.5345 13.5558 84.8834 13.3352C85.2333 13.1153 85.5196 12.8296 85.745 12.4781C85.9699 12.1272 86.082 11.7014 86.082 11.2009C86.082 10.7961 86.0048 10.4452 85.8521 10.147C85.6977 9.84938 85.4988 9.59994 85.2564 9.39699ZM77.2015 5.17302C76.9406 4.86916 76.5952 4.63447 76.1624 4.46723C75.7307 4.30056 75.1953 4.21723 74.5562 4.21723C73.9047 4.21723 73.3074 4.38673 72.7624 4.72631C72.218 5.06531 71.8388 5.51486 71.6263 6.07496H71.5908V4.48537H70.4721V13.7015H71.5908V8.32498C71.6026 7.87317 71.6764 7.45309 71.8128 7.06647C71.9492 6.67928 72.1386 6.34537 72.3803 6.06589C72.6238 5.78641 72.9191 5.56532 73.2691 5.40488C73.6179 5.24445 74.0175 5.16395 74.4672 5.16395C74.9163 5.16395 75.2928 5.23538 75.5943 5.37824C75.8964 5.5211 76.1359 5.71781 76.3134 5.96725C76.4915 6.21782 76.616 6.51204 76.6865 6.85161C76.758 7.19119 76.793 7.5574 76.793 7.9497V13.7015H77.9116V7.77169C77.9116 7.22407 77.8586 6.72973 77.7521 6.28925C77.6451 5.84877 77.4613 5.47631 77.2015 5.17302ZM68.3002 10.5308C68.1644 11.0013 67.9632 11.4208 67.6972 11.7904C67.4306 12.1595 67.0959 12.4577 66.6935 12.6833C66.2911 12.9095 65.8239 13.0229 65.2908 13.0229C64.7582 13.0229 64.2905 12.9095 63.8881 12.6833C63.4857 12.4577 63.151 12.1595 62.885 11.7904C62.6184 11.4208 62.4172 11.0013 62.2814 10.5308C62.145 10.0608 62.0768 9.58123 62.0768 9.09313C62.0768 8.6056 62.145 8.126 62.2814 7.65548C62.4172 7.18552 62.6184 6.76601 62.885 6.39639C63.151 6.02734 63.4857 5.72915 63.8881 5.50353C64.2905 5.27733 64.7582 5.16395 65.2908 5.16395C65.8239 5.16395 66.2911 5.27733 66.6935 5.50353C67.0959 5.72915 67.4306 6.02734 67.6972 6.39639C67.9632 6.76601 68.1644 7.18552 68.3002 7.65548C68.4366 8.126 68.5048 8.6056 68.5048 9.09313C68.5048 9.58123 68.4366 10.0608 68.3002 10.5308ZM68.5048 5.66396C68.1373 5.22348 67.6848 4.87257 67.1466 4.61009C66.6073 4.34875 65.9896 4.21723 65.2908 4.21723C64.592 4.21723 63.9738 4.34875 63.435 4.61009C62.8968 4.87257 62.4443 5.22348 62.0768 5.66396C61.7105 6.10501 61.4321 6.61975 61.2428 7.20933C61.0534 7.79834 60.9588 8.42646 60.9588 9.09313C60.9588 9.76037 61.0534 10.3879 61.2428 10.9775C61.4321 11.5671 61.7105 12.0818 62.0768 12.5229C62.4443 12.9634 62.8968 13.3114 63.435 13.5677C63.9738 13.8233 64.592 13.9515 65.2908 13.9515C65.9896 13.9515 66.6073 13.8233 67.1466 13.5677C67.6848 13.3114 68.1373 12.9634 68.5048 12.5229C68.8716 12.0818 69.15 11.5671 69.3394 10.9775C69.5287 10.3879 69.6234 9.76037 69.6234 9.09313C69.6234 8.42646 69.5287 7.79834 69.3394 7.20933C69.15 6.61975 68.8716 6.10501 68.5048 5.66396ZM59.2399 11.4509C59.0866 11.7729 58.8905 12.0495 58.6538 12.2814C58.4171 12.5138 58.1455 12.6952 57.8372 12.8262C57.5295 12.9571 57.2044 13.0229 56.8606 13.0229C56.328 13.0229 55.8603 12.9095 55.4579 12.6833C55.0555 12.4577 54.7208 12.1595 54.4548 11.7904C54.1882 11.4208 53.987 11.0013 53.8512 10.5308C53.7148 10.0608 53.6466 9.58123 53.6466 9.09313C53.6466 8.6056 53.7148 8.126 53.8512 7.65548C53.987 7.18552 54.1882 6.76601 54.4548 6.39639C54.7208 6.02734 55.0555 5.72915 55.4579 5.50353C55.8603 5.27733 56.328 5.16395 56.8606 5.16395C57.6067 5.16395 58.1861 5.3601 58.6008 5.75296C59.0151 6.14639 59.2985 6.68835 59.4529 7.37883H60.5716C60.4414 6.31873 60.0362 5.52734 59.3554 5.00295C58.6747 4.47914 57.8429 4.21723 56.8606 4.21723C56.1618 4.21723 55.5436 4.34875 55.0048 4.61009C54.4666 4.87257 54.0141 5.22348 53.6466 5.66396C53.2803 6.10501 53.0019 6.61975 52.8126 7.20933C52.6232 7.79834 52.5285 8.42646 52.5285 9.09313C52.5285 9.76037 52.6232 10.3879 52.8126 10.9775C53.0019 11.5671 53.2803 12.0818 53.6466 12.5229C54.0141 12.9634 54.4666 13.3114 55.0048 13.5677C55.5436 13.8233 56.1618 13.9515 56.8606 13.9515C57.902 13.9515 58.7547 13.6391 59.4174 13.0138C60.0802 12.3885 60.4888 11.5161 60.6426 10.397H59.5245C59.4884 10.7785 59.3932 11.1294 59.2399 11.4509Z" fill="#3B0466"/>
<path fill-rule="evenodd" clip-rule="evenodd" d="M155.614 24.3208C155.542 24.6723 155.421 24.988 155.25 25.2675C155.078 25.5476 154.847 25.7709 154.557 25.9376C154.266 26.1042 153.909 26.1876 153.483 26.1876C153.057 26.1876 152.701 26.1042 152.417 25.9376C152.133 25.7709 151.906 25.5476 151.734 25.2675C151.562 24.988 151.441 24.6723 151.37 24.3208C151.299 23.9699 151.263 23.6093 151.263 23.2403C151.263 22.8712 151.299 22.5084 151.37 22.1507C151.441 21.7935 151.562 21.4778 151.734 21.204C151.906 20.9307 152.133 20.7074 152.417 20.5345C152.701 20.3621 153.057 20.2754 153.483 20.2754C153.909 20.2754 154.266 20.3621 154.557 20.5345C154.847 20.7074 155.078 20.9307 155.25 21.204C155.421 21.4778 155.542 21.7935 155.614 22.1507C155.684 22.5084 155.719 22.8712 155.719 23.2403C155.719 23.6093 155.684 23.9699 155.614 24.3208ZM157.903 21.2312C157.679 20.6297 157.36 20.1178 156.944 19.6949C156.531 19.2725 156.031 18.9449 155.444 18.7124C154.859 18.48 154.205 18.3644 153.483 18.3644C152.761 18.3644 152.109 18.48 151.529 18.7124C150.949 18.9449 150.453 19.2725 150.037 19.6949C149.624 20.1178 149.304 20.6297 149.079 21.2312C148.855 21.8321 148.742 22.5022 148.742 23.2403C148.742 23.9784 148.855 24.645 149.079 25.2409C149.304 25.8361 149.624 26.3452 150.037 26.7675C150.453 27.1904 150.949 27.5153 151.529 27.7409C152.109 27.9676 152.761 28.0805 153.483 28.0805C154.205 28.0805 154.859 27.9676 155.444 27.7409C156.031 27.5153 156.531 27.1904 156.944 26.7675C157.36 26.3452 157.679 25.8361 157.903 25.2409C158.129 24.645 158.241 23.9784 158.241 23.2403C158.241 22.5022 158.129 21.8321 157.903 21.2312ZM145.371 24.2766C145.371 24.4194 145.355 24.6099 145.326 24.848C145.296 25.0861 145.217 25.3214 145.086 25.5532C144.956 25.7857 144.754 25.9852 144.483 26.1513C144.211 26.3185 143.825 26.4019 143.328 26.4019C143.128 26.4019 142.932 26.3837 142.742 26.348C142.553 26.3123 142.388 26.2499 142.245 26.1604C142.103 26.0714 141.99 25.9495 141.908 25.7947C141.825 25.64 141.784 25.4489 141.784 25.2227C141.784 24.9846 141.825 24.7885 141.908 24.6337C141.99 24.4784 142.1 24.3508 142.236 24.2494C142.373 24.1484 142.532 24.0679 142.716 24.0084C142.899 23.9489 143.086 23.9013 143.275 23.865C143.477 23.8298 143.678 23.8004 143.88 23.776C144.08 23.7522 144.272 23.7221 144.456 23.687C144.639 23.6507 144.811 23.6065 144.971 23.5532C145.131 23.4993 145.264 23.4251 145.371 23.3298V24.2766ZM147.891 25.7947V20.9897C147.891 20.4307 147.767 19.9806 147.518 19.641C147.27 19.3015 146.95 19.0373 146.56 18.8468C146.169 18.6563 145.738 18.5282 145.264 18.4624C144.791 18.3973 144.323 18.3644 143.861 18.3644C143.352 18.3644 142.846 18.4148 142.343 18.5163C141.84 18.6172 141.387 18.7867 140.985 19.0248C140.582 19.2635 140.25 19.5787 139.99 19.9715C139.729 20.3644 139.582 20.8593 139.547 21.454H142.068C142.115 20.9545 142.281 20.5968 142.565 20.3825C142.849 20.1682 143.24 20.0611 143.737 20.0611C143.962 20.0611 144.172 20.0764 144.367 20.1053C144.563 20.1354 144.733 20.1955 144.882 20.2845C145.03 20.3735 145.149 20.4987 145.238 20.6592C145.326 20.8202 145.371 21.0373 145.371 21.3111C145.382 21.573 145.305 21.7731 145.14 21.9098C144.973 22.0464 144.749 22.1507 144.465 22.2221C144.181 22.2935 143.855 22.3474 143.488 22.3831C143.121 22.4188 142.748 22.4665 142.369 22.526C141.99 22.5855 141.615 22.666 141.242 22.7669C140.869 22.8678 140.538 23.0203 140.248 23.2227C139.958 23.4251 139.721 23.6955 139.537 24.0351C139.354 24.3746 139.262 24.806 139.262 25.3299C139.262 25.8061 139.342 26.2176 139.502 26.5623C139.661 26.9075 139.884 27.1933 140.168 27.42C140.452 27.6462 140.783 27.8123 141.161 27.92C141.541 28.0272 141.95 28.0805 142.388 28.0805C142.956 28.0805 143.512 27.9971 144.056 27.8305C144.6 27.6638 145.075 27.3724 145.477 26.9552C145.488 27.1105 145.509 27.2619 145.539 27.411C145.569 27.56 145.607 27.7057 145.655 27.8486H148.212C148.093 27.6581 148.01 27.3724 147.963 26.9909C147.916 26.6099 147.891 26.2114 147.891 25.7947ZM141.864 16.73C141.964 16.5934 142.132 16.5248 142.369 16.5248C142.57 16.5248 142.772 16.5548 142.973 16.6138C143.175 16.6739 143.388 16.7453 143.613 16.8281C143.838 16.8995 144.068 16.9681 144.306 17.0339C144.542 17.0996 144.796 17.1319 145.068 17.1319C145.424 17.1319 145.717 17.0633 145.948 16.9267C146.179 16.7901 146.367 16.62 146.515 16.4176C146.663 16.2153 146.775 15.9947 146.853 15.7566C146.929 15.5185 146.998 15.2986 147.057 15.0962H145.832C145.844 15.2623 145.79 15.408 145.672 15.5333C145.553 15.6586 145.359 15.7209 145.086 15.7209C144.884 15.7209 144.687 15.688 144.492 15.6223C144.297 15.5571 144.104 15.4828 143.914 15.3995C143.725 15.3281 143.538 15.26 143.355 15.1937C143.172 15.1285 142.979 15.0962 142.778 15.0962C142.388 15.0962 142.062 15.1614 141.801 15.2923C141.541 15.4233 141.328 15.5928 141.161 15.8014C140.997 16.01 140.867 16.2419 140.772 16.4976C140.676 16.7538 140.6 17.0129 140.541 17.2748H141.624C141.683 17.0486 141.763 16.8672 141.864 16.73ZM135.858 25.6785C135.533 26.0175 135.068 26.1876 134.465 26.1876C134.074 26.1876 133.743 26.098 133.471 25.9194C133.198 25.7409 132.983 25.5118 132.823 25.2318C132.663 24.9517 132.548 24.6394 132.476 24.2941C132.406 23.9489 132.369 23.6093 132.369 23.276C132.369 22.9307 132.406 22.5827 132.476 22.2306C132.548 21.8797 132.669 21.5588 132.841 21.2663C133.012 20.9755 133.233 20.7374 133.506 20.5526C133.778 20.3678 134.116 20.2754 134.518 20.2754C135.596 20.2754 136.216 20.8054 136.383 21.865H138.85C138.815 21.2697 138.673 20.755 138.424 20.3196C138.176 19.8854 137.853 19.5225 137.457 19.2306C137.06 18.9392 136.61 18.7215 136.108 18.5787C135.604 18.4358 135.08 18.3644 134.536 18.3644C133.79 18.3644 133.127 18.4891 132.548 18.7391C131.968 18.9897 131.476 19.3377 131.074 19.7845C130.671 20.2306 130.366 20.7607 130.159 21.374C129.952 21.9874 129.849 22.6513 129.849 23.365C129.849 24.0084 129.943 24.6008 130.133 25.1422C130.322 25.6842 130.594 26.1604 130.949 26.5714C131.304 26.9818 131.728 27.3123 132.218 27.5629C132.709 27.8123 133.258 27.9676 133.861 28.0272L132.974 29.3135L133.347 29.742C133.559 29.6581 133.796 29.6168 134.057 29.6168C134.258 29.6168 134.426 29.6553 134.563 29.733C134.699 29.8101 134.767 29.962 134.767 30.1882C134.767 30.403 134.702 30.5572 134.572 30.6525C134.441 30.7477 134.269 30.7953 134.057 30.7953C133.748 30.7953 133.471 30.7625 133.223 30.6973C132.974 30.6315 132.754 30.5572 132.566 30.4739L132.192 31.3311C132.358 31.3912 132.515 31.4439 132.663 31.4921C132.811 31.5391 132.965 31.5816 133.125 31.6168C133.284 31.6531 133.464 31.6791 133.666 31.6978C133.867 31.7154 134.11 31.7245 134.394 31.7245C134.655 31.7245 134.909 31.6978 135.157 31.644C135.406 31.5901 135.627 31.4949 135.823 31.3583C136.018 31.2211 136.176 31.0368 136.293 30.8044C136.412 30.572 136.472 30.2834 136.472 29.9382C136.472 29.7239 136.424 29.5363 136.33 29.3753C136.234 29.2148 136.111 29.0833 135.956 28.983C135.803 28.8815 135.627 28.8067 135.432 28.759C135.238 28.7114 135.038 28.6876 134.838 28.6876C134.577 28.6876 134.376 28.7177 134.234 28.7772H134.199L134.696 28.0629C135.867 28.0272 136.824 27.6904 137.564 27.0532C138.303 26.4166 138.75 25.5028 138.904 24.3117H136.472C136.388 24.8831 136.184 25.3389 135.858 25.6785ZM126.477 24.2766C126.477 24.4194 126.462 24.6099 126.432 24.848C126.403 25.0861 126.323 25.3214 126.192 25.5532C126.062 25.7857 125.861 25.9852 125.589 26.1513C125.317 26.3185 124.932 26.4019 124.435 26.4019C124.234 26.4019 124.038 26.3837 123.849 26.348C123.66 26.3123 123.495 26.2499 123.351 26.1604C123.209 26.0714 123.097 25.9495 123.014 25.7947C122.932 25.64 122.89 25.4489 122.89 25.2227C122.89 24.9846 122.932 24.7885 123.014 24.6337C123.097 24.4784 123.207 24.3508 123.342 24.2494C123.479 24.1484 123.639 24.0679 123.823 24.0084C124.006 23.9489 124.192 23.9013 124.382 23.865C124.583 23.8298 124.785 23.8004 124.986 23.776C125.186 23.7522 125.379 23.7221 125.563 23.687C125.745 23.6507 125.917 23.6065 126.078 23.5532C126.237 23.4993 126.37 23.4251 126.477 23.3298V24.2766ZM128.998 25.7947V20.9897C128.998 20.4307 128.874 19.9806 128.625 19.641C128.377 19.3015 128.057 19.0373 127.666 18.8468C127.275 18.6563 126.844 18.5282 126.37 18.4624C125.898 18.3973 125.429 18.3644 124.967 18.3644C124.459 18.3644 123.952 18.4148 123.45 18.5163C122.946 18.6172 122.494 18.7867 122.091 19.0248C121.688 19.2635 121.357 19.5787 121.097 19.9715C120.836 20.3644 120.689 20.8593 120.654 21.454H123.174C123.221 20.9545 123.388 20.5968 123.672 20.3825C123.956 20.1682 124.347 20.0611 124.844 20.0611C125.069 20.0611 125.279 20.0764 125.474 20.1053C125.669 20.1354 125.84 20.1955 125.989 20.2845C126.136 20.3735 126.255 20.4987 126.344 20.6592C126.432 20.8202 126.477 21.0373 126.477 21.3111C126.488 21.573 126.412 21.7731 126.246 21.9098C126.08 22.0464 125.855 22.1507 125.571 22.2221C125.287 22.2935 124.962 22.3474 124.595 22.3831C124.228 22.4188 123.855 22.4665 123.476 22.526C123.097 22.5855 122.722 22.666 122.349 22.7669C121.976 22.8678 121.644 23.0203 121.355 23.2227C121.064 23.4251 120.827 23.6955 120.644 24.0351C120.461 24.3746 120.369 24.806 120.369 25.3299C120.369 25.8061 120.449 26.2176 120.609 26.5623C120.768 26.9075 120.99 27.1933 121.274 27.42C121.558 27.6462 121.89 27.8123 122.268 27.92C122.648 28.0272 123.057 28.0805 123.495 28.0805C124.063 28.0805 124.618 27.9971 125.163 27.8305C125.707 27.6638 126.181 27.3724 126.583 26.9552C126.595 27.1105 126.616 27.2619 126.646 27.411C126.675 27.56 126.714 27.7057 126.762 27.8486H129.318C129.199 27.6581 129.117 27.3724 129.069 26.9909C129.022 26.6099 128.998 26.2114 128.998 25.7947ZM116.965 25.6785C116.64 26.0175 116.175 26.1876 115.572 26.1876C115.181 26.1876 114.85 26.098 114.578 25.9194C114.305 25.7409 114.089 25.5118 113.929 25.2318C113.77 24.9517 113.654 24.6394 113.583 24.2941C113.512 23.9489 113.476 23.6093 113.476 23.276C113.476 22.9307 113.512 22.5827 113.583 22.2306C113.654 21.8797 113.776 21.5588 113.947 21.2663C114.119 20.9755 114.34 20.7374 114.613 20.5526C114.885 20.3678 115.223 20.2754 115.625 20.2754C116.702 20.2754 117.323 20.8054 117.489 21.865H119.957C119.922 21.2697 119.78 20.755 119.531 20.3196C119.282 19.8854 118.96 19.5225 118.563 19.2306C118.167 18.9392 117.717 18.7215 117.214 18.5787C116.711 18.4358 116.187 18.3644 115.642 18.3644C114.897 18.3644 114.233 18.4891 113.654 18.7391C113.074 18.9897 112.582 19.3377 112.181 19.7845C111.778 20.2306 111.473 20.7607 111.266 21.374C111.059 21.9874 110.955 22.6513 110.955 23.365C110.955 24.056 111.068 24.6898 111.293 25.2675C111.517 25.8452 111.831 26.3418 112.233 26.759C112.636 27.1757 113.124 27.5 113.698 27.7324C114.273 27.9648 114.903 28.0805 115.59 28.0805C116.808 28.0805 117.808 27.759 118.59 27.1162C119.371 26.4733 119.844 25.5385 120.011 24.3117H117.578C117.494 24.8831 117.291 25.3389 116.965 25.6785ZM107.501 27.8486H110.023V18.6144H107.501V27.8486ZM107.501 17.1852H110.023V15.0956H107.501V17.1852ZM105.545 19.4092C105.297 19.0821 104.956 18.8258 104.524 18.641C104.093 18.4568 103.539 18.3644 102.864 18.3644C102.331 18.3644 101.811 18.4863 101.302 18.7306C100.793 18.9744 100.379 19.3644 100.059 19.9001H100.006V18.6144H97.6083V27.8486H100.13V23.0084C100.13 22.0674 100.284 21.3916 100.591 20.9806C100.899 20.5702 101.397 20.3644 102.083 20.3644C102.687 20.3644 103.106 20.5526 103.344 20.9273C103.581 21.3026 103.699 21.8712 103.699 22.6326V27.8486H106.221V22.1688C106.221 21.5968 106.17 21.0759 106.069 20.6059C105.968 20.1354 105.794 19.7368 105.545 19.4092ZM93.8285 23.4546C93.8285 24.3956 93.6746 25.0708 93.3664 25.4818C93.0592 25.8922 92.5616 26.098 91.8746 26.098C91.2716 26.098 90.8512 25.9109 90.6145 25.5356C90.3778 25.1604 90.2589 24.5923 90.2589 23.8298V18.6144H87.7387V24.2941C87.7387 24.8656 87.7877 25.3866 87.8892 25.8571C87.9895 26.3276 88.1642 26.7261 88.4133 27.0532C88.6618 27.3809 89.0022 27.6343 89.4333 27.8123C89.8661 27.9915 90.4195 28.0805 91.0947 28.0805C91.6272 28.0805 92.148 27.9614 92.6563 27.7233C93.1646 27.4852 93.58 27.098 93.8989 26.5623H93.953V27.8486H96.3493V18.6144H93.8285V23.4546ZM85.5623 19.1144C85.2664 18.8525 84.9108 18.6626 84.4971 18.5429C84.0818 18.4245 83.6327 18.3644 83.1474 18.3644C82.5078 18.3644 81.9544 18.5191 81.4866 18.8287C81.0189 19.1382 80.6498 19.4953 80.377 19.9001C80.1296 19.3287 79.765 18.9296 79.2854 18.7039C78.8064 18.4772 78.2761 18.3644 77.6967 18.3644C77.0926 18.3644 76.5567 18.4959 76.09 18.7572C75.6223 19.0191 75.2227 19.3888 74.8913 19.865H74.8558V18.6144H72.4765V27.8486H74.9979V22.4903C74.9979 22.0379 75.0627 21.6717 75.1928 21.3916C75.323 21.1121 75.4803 20.8978 75.664 20.7487C75.8466 20.6002 76.0359 20.4987 76.232 20.4449C76.4265 20.391 76.5843 20.3644 76.7021 20.3644C77.1044 20.3644 77.4093 20.4336 77.6167 20.5702C77.8235 20.7074 77.9723 20.8888 78.0602 21.115C78.1493 21.3412 78.2 21.5883 78.2107 21.8559C78.2231 22.124 78.2287 22.395 78.2287 22.6688V27.8486H80.7501V22.704C80.7501 22.4188 80.7709 22.136 80.8121 21.8559C80.8538 21.5764 80.936 21.3264 81.0606 21.1059C81.1851 20.8854 81.3565 20.7074 81.5757 20.5702C81.7949 20.4336 82.0817 20.3644 82.4362 20.3644C82.7918 20.3644 83.0725 20.4245 83.2804 20.5435C83.4878 20.6626 83.6439 20.823 83.7504 21.026C83.8575 21.2283 83.9223 21.4664 83.9466 21.7397C83.9697 22.0141 83.9821 22.3055 83.9821 22.615V27.8486H86.5034V21.6683C86.5034 21.073 86.42 20.5639 86.2549 20.1416C86.0886 19.7193 85.8576 19.3763 85.5623 19.1144ZM68.9363 24.3208C68.8647 24.6723 68.7441 24.988 68.5722 25.2675C68.4003 25.5476 68.1693 25.7709 67.8796 25.9376C67.5894 26.1042 67.2315 26.1876 66.8055 26.1876C66.3794 26.1876 66.0238 26.1042 65.7398 25.9376C65.4563 25.7709 65.2281 25.5476 65.0567 25.2675C64.8849 24.988 64.7637 24.6723 64.6927 24.3208C64.6217 23.9699 64.5862 23.6093 64.5862 23.2403C64.5862 22.8712 64.6217 22.5084 64.6927 22.1507C64.7637 21.7935 64.8849 21.4778 65.0567 21.204C65.2281 20.9307 65.4563 20.7074 65.7398 20.5345C66.0238 20.3621 66.3794 20.2754 66.8055 20.2754C67.2315 20.2754 67.5894 20.3621 67.8796 20.5345C68.1693 20.7074 68.4003 20.9307 68.5722 21.204C68.7441 21.4778 68.8647 21.7935 68.9363 22.1507C69.0067 22.5084 69.0428 22.8712 69.0428 23.2403C69.0428 23.6093 69.0067 23.9699 68.9363 24.3208ZM70.2679 19.6949C69.8532 19.2725 69.3539 18.9449 68.7678 18.7124C68.1811 18.48 67.5274 18.3644 66.8055 18.3644C66.0835 18.3644 65.4321 18.48 64.8522 18.7124C64.2723 18.9449 63.7752 19.2725 63.361 19.6949C62.9462 20.1178 62.6273 20.6297 62.4024 21.2312C62.177 21.8321 62.0648 22.5022 62.0648 23.2403C62.0648 23.9784 62.177 24.645 62.4024 25.2409C62.6273 25.8361 62.9462 26.3452 63.361 26.7675C63.7752 27.1904 64.2723 27.5153 64.8522 27.7409C65.4321 27.9676 66.0835 28.0805 66.8055 28.0805C67.5274 28.0805 68.1811 27.9676 68.7678 27.7409C69.3539 27.5153 69.8532 27.1904 70.2679 26.7675C70.6822 26.3452 71.0011 25.8361 71.2271 25.2409C71.4514 24.645 71.5636 23.9784 71.5636 23.2403C71.5636 22.5022 71.4514 21.8321 71.2271 21.2312C71.0011 20.6297 70.6822 20.1178 70.2679 19.6949ZM58.6097 25.6785C58.2839 26.0175 57.8196 26.1876 57.2154 26.1876C56.8255 26.1876 56.4935 26.098 56.2213 25.9194C55.9491 25.7409 55.7339 25.5118 55.5732 25.2318C55.4132 24.9517 55.2982 24.6394 55.2272 24.2941C55.1562 23.9489 55.1207 23.6093 55.1207 23.276C55.1207 22.9307 55.1562 22.5827 55.2272 22.2306C55.2982 21.8797 55.4194 21.5588 55.5913 21.2663C55.762 20.9755 55.9846 20.7374 56.2568 20.5526C56.5296 20.3678 56.866 20.2754 57.269 20.2754C58.3459 20.2754 58.9675 20.8054 59.1338 21.865H61.6016C61.5661 21.2697 61.4241 20.755 61.1755 20.3196C60.9265 19.8854 60.6041 19.5225 60.2079 19.2306C59.8106 18.9392 59.3615 18.7215 58.8588 18.5787C58.355 18.4358 57.8314 18.3644 57.2865 18.3644C56.5409 18.3644 55.8776 18.4891 55.2982 18.7391C54.7183 18.9897 54.2269 19.3377 53.8245 19.7845C53.4222 20.2306 53.1173 20.7607 52.9104 21.374C52.7031 21.9874 52.5994 22.6513 52.5994 23.365C52.5994 24.056 52.7115 24.6898 52.9369 25.2675C53.1612 25.8452 53.4751 26.3418 53.8781 26.759C54.2799 27.1757 54.7685 27.5 55.3427 27.7324C55.9164 27.9648 56.5471 28.0805 57.234 28.0805C58.4524 28.0805 59.4528 27.759 60.2344 27.1162C61.0161 26.4733 61.4889 25.5385 61.6546 24.3117H59.2223C59.1394 24.8831 58.9348 25.3389 58.6097 25.6785Z" fill="#3B0466"/>
</g>
<defs>
<clipPath id="clip0">
<rect width="158.359" height="32" fill="white"/>
</clipPath>
</defs>
</svg>
